<?xml version="1.0" standalone="no"?>
<!DOCTYPE svg PUBLIC "-//W3C//DTD SVG 20010904//EN"
 "http://www.w3.org/TR/2001/REC-SVG-20010904/DTD/svg10.dtd">
<svg version="1.0" xmlns="http://www.w3.org/2000/svg"
 width="264.000000pt" height="191.000000pt" viewBox="0 0 264.000000 191.000000"
 preserveAspectRatio="xMidYMid meet">

<g transform="translate(0.000000,191.000000) scale(0.100000,-0.100000)"
fill="#000000" stroke="none">
<path d="M1200 1780 l0 -120 130 0 130 0 0 120 0 120 -130 0 -130 0 0 -120z"/>
<path d="M550 1480 l0 -120 130 0 130 0 0 120 0 120 -130 0 -130 0 0 -120z"/>
<path d="M879 1596 c-2 -2 -3 -56 -1 -120 l3 -116 130 0 129 0 0 120 0 120
-128 0 c-71 0 -131 -2 -133 -4z"/>
<path d="M1200 1480 l0 -120 130 0 130 0 0 120 0 120 -130 0 -130 0 0 -120z"/>
<path d="M2035 1492 c-36 -54 -66 -147 -72 -218 -6 -63 15 -157 43 -201 13
-20 12 -23 -7 -33 -69 -37 -131 -40 -1047 -40 -610 0 -900 -3 -913 -11 -35
-18 -40 -53 -29 -183 14 -158 48 -286 110 -413 126 -256 337 -363 745 -380
272 -11 530 43 753 156 153 78 326 233 424 382 56 84 144 252 168 319 12 36
13 36 97 47 95 13 170 44 228 96 46 39 100 130 91 153 -3 8 -32 27 -63 42 -52
24 -70 27 -169 27 l-112 0 -12 47 c-17 69 -80 160 -143 207 -29 23 -57 41 -60
41 -4 0 -18 -17 -32 -38z"/>
<path d="M230 1180 l0 -120 130 0 130 0 0 120 0 120 -130 0 -130 0 0 -120z"/>
<path d="M550 1180 l0 -120 130 0 130 0 0 120 0 120 -130 0 -130 0 0 -120z"/>
<path d="M879 1296 c-2 -2 -3 -56 -1 -120 l3 -116 130 0 129 0 0 120 0 120
-128 0 c-71 0 -131 -2 -133 -4z"/>
<path d="M1200 1180 l0 -120 130 0 130 0 0 120 0 120 -130 0 -130 0 0 -120z"/>
<path d="M1522 1183 l3 -118 130 0 130 0 0 115 0 115 -133 3 -133 3 3 -118z"/>
</g>
</svg>
